<svg width="4456" height="621" viewBox="0 0 4456 621" fill="none" xmlns="http://www.w3.org/2000/svg">
<path d="M2130.16 0L0 0.5V319L4455 323V116C4224.46 117 2285.96 115.2 2244.33 116C2235.86 116.163 2225.85 116.572 2219.07 112.5C2206.29 104.819 2198.53 88.2948 2188.76 74C2171.91 49.354 2157.5 22.682 2151.88 15C2143.39 3.4 2133.86 0.166667 2130.16 0Z" fill="#E5E0D9"/>
<path d="M2099 143H1.5V461.5L4454.5 462.5V255.5C4226.33 256.5 2253.2 258.2 2212 259C2203.61 259.163 2193.71 259.572 2187 255.5C2174.35 247.819 2166.67 231.295 2157 217C2140.32 192.354 2126.06 165.682 2120.5 158C2112.1 146.4 2102.67 143.167 2099 143Z" fill="#D3CDC6"/>
<path d="M2063 302H3V620.5H4455.5V413.5C4227.33 414.5 2217.2 417.2 2176 418C2167.61 418.163 2157.71 418.572 2151 414.5C2138.35 406.819 2130.67 390.295 2121 376C2104.32 351.354 2090.06 324.682 2084.5 317C2076.1 305.4 2066.67 302.167 2063 302Z" fill="#C0BBB4"/>
</svg>
