<svg width="47" height="47" viewBox="0 0 47 47" fill="none" xmlns="http://www.w3.org/2000/svg">
<path d="M46.5318 14.1001C46.5318 14.1001 46.0729 10.8597 44.6592 9.43687C42.8691 7.56421 40.868 7.55503 39.95 7.44487C33.3773 6.96753 23.5092 6.96753 23.5092 6.96753H23.4908C23.4908 6.96753 13.6227 6.96753 7.05 7.44487C6.13203 7.55503 4.13086 7.56421 2.34082 9.43687C0.927149 10.8597 0.477344 14.1001 0.477344 14.1001C0.477344 14.1001 0 17.9097 0 21.7101V25.2718C0 29.0722 0.468164 32.8818 0.468164 32.8818C0.468164 32.8818 0.927148 36.1222 2.33164 37.5451C4.12168 39.4177 6.47168 39.3535 7.51816 39.5554C11.2818 39.9134 23.5 40.0236 23.5 40.0236C23.5 40.0236 33.3773 40.0052 39.95 39.5371C40.868 39.4269 42.8691 39.4177 44.6592 37.5451C46.0729 36.1222 46.5318 32.8818 46.5318 32.8818C46.5318 32.8818 47 29.0814 47 25.2718V21.7101C47 17.9097 46.5318 14.1001 46.5318 14.1001ZM18.6439 29.5955V16.3859L31.3395 23.0136L18.6439 29.5955Z" fill="#6A6763"/>
</svg>
