<svg width="47" height="34" viewBox="0 0 47 34" fill="none" xmlns="http://www.w3.org/2000/svg">
<path d="M46.5318 7.13262C46.5318 7.13262 46.0729 3.89219 44.6592 2.46934C42.8691 0.59668 40.868 0.5875 39.95 0.477343C33.3773 -2.62633e-07 23.5092 0 23.5092 0H23.4908C23.4908 0 13.6227 -2.62633e-07 7.05 0.477343C6.13203 0.5875 4.13086 0.59668 2.34082 2.46934C0.927149 3.89219 0.477344 7.13262 0.477344 7.13262C0.477344 7.13262 0 10.9422 0 14.7426V18.3043C0 22.1047 0.468164 25.9143 0.468164 25.9143C0.468164 25.9143 0.927148 29.1547 2.33164 30.5775C4.12168 32.4502 6.47168 32.3859 7.51816 32.5879C11.2818 32.9459 23.5 33.0561 23.5 33.0561C23.5 33.0561 33.3773 33.0377 39.95 32.5695C40.868 32.4594 42.8691 32.4502 44.6592 30.5775C46.0729 29.1547 46.5318 25.9143 46.5318 25.9143C46.5318 25.9143 47 22.1139 47 18.3043V14.7426C47 10.9422 46.5318 7.13262 46.5318 7.13262ZM18.6439 22.6279V9.41836L31.3395 16.0461L18.6439 22.6279Z" fill="white" fill-opacity="0.65"/>
</svg>
